<svg xmlns="http://www.w3.org/2000/svg" width="40" height="40"><path data-name="Path 1" d="M40 20A20 20 0 1 1 20 0a20 20 0 0 1 20 20Z" fill="#235b9e"/><path data-name="Path 2" d="M16 31h6V20h4.45l.55-4.4h-4.77v-1.76a.784.784 0 0 1 .325-.758 1.535 1.535 0 0 1 1-.3h3.36V9H22.29C17.15 9 16 11.809 16 13.613V15.6h-3V20h3Z" fill="#fff"/><path data-name="Path 3" d="M40 20A20 20 0 1 1 20 0a20 20 0 0 1 20 20Z" fill="#235b9e"/><path data-name="Path 4" d="M16 31h6V20h4.45l.55-4.4h-4.77v-1.76a.784.784 0 0 1 .325-.758 1.535 1.535 0 0 1 1-.3h3.36V9H22.29C17.15 9 16 11.809 16 13.613V15.6h-3V20h3Z" fill="#fff"/><path data-name="Path 5" d="M40 20A20 20 0 1 1 20 0a20 20 0 0 1 20 20Z" fill="#ed017f"/><path data-name="Path 6" d="M16 31h6V20h4.45l.55-4.4h-4.77v-1.76a.784.784 0 0 1 .325-.758 1.535 1.535 0 0 1 1-.3h3.36V9H22.29C17.15 9 16 11.809 16 13.613V15.6h-3V20h3Z" fill="#fff"/></svg>