<svg xmlns="http://www.w3.org/2000/svg" width="40" height="40"><path data-name="Path 7" d="M40 20A20 20 0 1 1 20 0a20 20 0 0 1 20 20Z" fill="#2d80a6"/><path data-name="Path 8" d="M26.747 9H13.253A4.253 4.253 0 0 0 9 13.253v13.494A4.253 4.253 0 0 0 13.253 31h13.494A4.253 4.253 0 0 0 31 26.747V13.253A4.253 4.253 0 0 0 26.747 9Zm1.225 2.537h.484v3.725h-3.719V11.53Zm-11.11 6.2A3.865 3.865 0 1 1 16.128 20a3.865 3.865 0 0 1 .733-2.259Zm12 9.005a2.112 2.112 0 0 1-2.112 2.112H13.253a2.112 2.112 0 0 1-2.112-2.112v-9.001h3.285A5.933 5.933 0 0 0 13.987 20a6.013 6.013 0 1 0 11.587-2.259h3.285Z" fill="#fff"/><path data-name="Path 9" d="M40 20A20 20 0 1 1 20 0a20 20 0 0 1 20 20Z" fill="#2d80a6"/><path data-name="Path 10" d="M26.747 9H13.253A4.253 4.253 0 0 0 9 13.253v13.494A4.253 4.253 0 0 0 13.253 31h13.494A4.253 4.253 0 0 0 31 26.747V13.253A4.253 4.253 0 0 0 26.747 9Zm1.225 2.537h.484v3.725h-3.719V11.53Zm-11.11 6.2A3.865 3.865 0 1 1 16.128 20a3.865 3.865 0 0 1 .733-2.259Zm12 9.005a2.112 2.112 0 0 1-2.112 2.112H13.253a2.112 2.112 0 0 1-2.112-2.112v-9.001h3.285A5.933 5.933 0 0 0 13.987 20a6.013 6.013 0 1 0 11.587-2.259h3.285Z" fill="#fff"/><path data-name="Path 11" d="M40 20A20 20 0 1 1 20 0a20 20 0 0 1 20 20Z" fill="#4c2683"/><path data-name="Path 12" d="M26.747 9H13.253A4.253 4.253 0 0 0 9 13.253v13.494A4.253 4.253 0 0 0 13.253 31h13.494A4.253 4.253 0 0 0 31 26.747V13.253A4.253 4.253 0 0 0 26.747 9Zm1.225 2.537h.484v3.725h-3.719V11.53Zm-11.11 6.2A3.865 3.865 0 1 1 16.128 20a3.865 3.865 0 0 1 .733-2.259Zm12 9.005a2.112 2.112 0 0 1-2.112 2.112H13.253a2.112 2.112 0 0 1-2.112-2.112v-9.001h3.285A5.933 5.933 0 0 0 13.987 20a6.013 6.013 0 1 0 11.587-2.259h3.285Z" fill="#fff"/></svg>